<?xml version="1.0" encoding="UTF-8"?>
<svg xmlns="http://www.w3.org/2000/svg" xmlns:xlink="http://www.w3.org/1999/xlink" width="1920" height="1080" viewBox="0 0 1920 1080">
<defs>
<g>
<g id="glyph-0-0">
<path d="M 0.421875 0 L 0.421875 -1.046875 L 3.234375 -3.515625 C 3.628906 -3.859375 3.9375 -4.164062 4.15625 -4.4375 C 4.382812 -4.71875 4.5 -5.050781 4.5 -5.4375 C 4.5 -5.84375 4.375 -6.160156 4.125 -6.390625 C 3.882812 -6.628906 3.554688 -6.75 3.140625 -6.75 C 2.679688 -6.75 2.320312 -6.601562 2.0625 -6.3125 C 1.8125 -6.03125 1.6875 -5.640625 1.6875 -5.140625 L 0.421875 -5.140625 C 0.421875 -5.691406 0.53125 -6.171875 0.75 -6.578125 C 0.96875 -6.992188 1.28125 -7.316406 1.6875 -7.546875 C 2.101562 -7.773438 2.585938 -7.890625 3.140625 -7.890625 C 3.648438 -7.890625 4.101562 -7.789062 4.5 -7.59375 C 4.90625 -7.394531 5.222656 -7.113281 5.453125 -6.75 C 5.679688 -6.394531 5.796875 -5.976562 5.796875 -5.5 C 5.796875 -4.96875 5.648438 -4.492188 5.359375 -4.078125 C 5.066406 -3.660156 4.644531 -3.210938 4.09375 -2.734375 L 2.296875 -1.140625 L 5.84375 -1.140625 L 5.84375 0 Z "/>
</g>
<g id="glyph-0-1">
<path d="M 0.296875 -1.734375 L 0.296875 -2.828125 L 3.8125 -7.765625 L 5.5 -7.765625 L 5.5 -2.84375 L 6.578125 -2.84375 L 6.578125 -1.734375 L 5.5 -1.734375 L 5.5 0 L 4.1875 0 L 4.1875 -1.734375 Z M 4.1875 -2.84375 L 4.1875 -6.390625 L 1.671875 -2.859375 L 1.671875 -2.84375 Z "/>
</g>
</g>
</defs>
<g fill="rgb(3.921569%, 5.490196%, 9.019608%)" fill-opacity="1">
<use xlink:href="#glyph-0-0" x="30" y="30.338867"/>
<use xlink:href="#glyph-0-1" x="36" y="30.338867"/>
</g>
</svg>
